HIERARCHY
ROOT Hips
{
	OFFSET -0.001795 -0.223333 0.028219
	CHANNELS 6 Xposition Yposition Zposition Zrotation Yrotation Xrotation 
	JOINT LeftUpLeg
	{
		OFFSET 0.069520 -0.091406 -0.006815
		CHANNELS 3 Zrotation Yrotation Xrotation
		JOINT LeftLeg
		{
			OFFSET 0.034277 -0.375199 -0.004496
			CHANNELS 3 Zrotation Yrotation Xrotation
			JOINT LeftFoot
			{
				OFFSET -0.013596 -0.397961 -0.043693
				CHANNELS 3 Zrotation Yrotation Xrotation
				JOINT LeftToe
				{
					OFFSET 0.026358 -0.055791 0.119288
					CHANNELS 3 Zrotation Yrotation Xrotation
					End Site
					{
						OFFSET 0.000000 0.000000 0.000000
					}
				}
			}
		}
	}
	JOINT RightUpLeg
	{
		OFFSET -0.067670 -0.090522 -0.004320
		CHANNELS 3 Zrotation Yrotation Xrotation
		JOINT RightLeg
		{
			OFFSET -0.038290 -0.382569 -0.008850
			CHANNELS 3 Zrotation Yrotation Xrotation
			JOINT RightFoot
			{
				OFFSET 0.015774 -0.398415 -0.042312
				CHANNELS 3 Zrotation Yrotation Xrotation
				JOINT RightToe
				{
					OFFSET -0.025372 -0.048144 0.123348
					CHANNELS 3 Zrotation Yrotation Xrotation
					End Site
					{
						OFFSET 0.000000 0.000000 0.000000
					}
				}
			}
		}
	}
	JOINT Spine
	{
		OFFSET -0.002533 0.108963 -0.026696
		CHANNELS 3 Zrotation Yrotation Xrotation
		JOINT Spine1
		{
			OFFSET 0.005487 0.135180 0.001092
			CHANNELS 3 Zrotation Yrotation Xrotation
			JOINT Spine2
			{
				OFFSET 0.001457 0.052922 0.025425
				CHANNELS 3 Zrotation Yrotation Xrotation
				JOINT Neck
				{
					OFFSET -0.002778 0.213870 -0.042857
					CHANNELS 3 Zrotation Yrotation Xrotation
					JOINT Head
					{
						OFFSET 0.005152 0.064970 0.051349
						CHANNELS 3 Zrotation Yrotation Xrotation
						End Site
						{
							OFFSET 0.000000 0.000000 0.000000
						}
					}
				}
				JOINT LeftShoulder
				{
					OFFSET 0.078845 0.121749 -0.034090
					CHANNELS 3 Zrotation Yrotation Xrotation
					JOINT LeftArm
					{
						OFFSET 0.090977 0.030469 -0.008868
						CHANNELS 3 Zrotation Yrotation Xrotation
						JOINT LeftForeArm
						{
							OFFSET 0.259612 -0.012772 -0.027456
							CHANNELS 3 Zrotation Yrotation Xrotation
							JOINT LeftHand
							{
								OFFSET 0.249234 0.008986 -0.001171
								CHANNELS 3 Zrotation Yrotation Xrotation
								End Site
								{
									OFFSET 0.000000 0.000000 0.000000
								}
							}
						}
					}
				}
				JOINT RightShoulder
				{
					OFFSET -0.081759 0.118833 -0.038615
					CHANNELS 3 Zrotation Yrotation Xrotation
					JOINT RightArm
					{
						OFFSET -0.096012 0.032551 -0.009143
						CHANNELS 3 Zrotation Yrotation Xrotation
						JOINT RightForeArm
						{
							OFFSET -0.253742 -0.013329 -0.021401
							CHANNELS 3 Zrotation Yrotation Xrotation
							JOINT RightHand
							{
								OFFSET -0.255298 0.007772 -0.005559
								CHANNELS 3 Zrotation Yrotation Xrotation
								End Site
								{
									OFFSET 0.000000 0.000000 0.000000
								}
							}
						}
					}
				}
			}
		}
	}
}
MOTION
Frames: 7
Frame Time: 0.050000
0.000000 0.948707 0.000000 -2.060539 -2.339187 1.893021 8.353351 -0.031610 2.816639 -2.706611 0.352640 -4.320508 5.704415 13.580343 11.848574 0.000000 0.000000 0.000000 -4.023914 0.084096 0.729968 3.122461 -0.338245 -2.079122 -5.063510 -14.896864 13.719820 0.000000 0.000000 0.000000 -2.585454 0.015495 1.266690 4.620138 -0.578837 -23.482756 -0.158797 0.924480 28.853970 0.152744 1.497655 -27.793098 0.000000 0.000000 0.000000 -26.222535 1.336467 -2.194875 -54.967164 -6.288562 -6.309187 -8.382766 -26.392459 3.488969 0.000000 0.000000 0.000000 17.448516 4.699589 1.487070 63.660843 1.414393 -8.233839 3.625182 28.708212 2.317963 0.000000 0.000000 0.000000 
0.000130 0.948088 0.000016 -2.330104 -3.062679 2.251273 8.669367 -0.026303 3.048498 -2.622253 0.361172 -5.194213 6.323877 14.465985 11.354031 0.000000 0.000000 0.000000 -3.814776 0.126363 0.092919 2.937808 -0.316088 -1.950746 -4.510698 -14.003133 13.657565 0.000000 0.000000 0.000000 -2.450111 0.027843 0.657169 4.329258 -0.560684 -22.853809 0.173533 1.677901 28.212282 -0.209068 1.772873 -28.003727 0.000000 0.000000 0.000000 -26.244868 2.141908 -2.851612 -55.015221 -6.471190 -6.133945 -9.352134 -26.362384 3.693465 0.000000 0.000000 0.000000 17.302662 4.434365 1.389365 64.446188 0.262001 -8.857933 3.831551 30.836324 2.600084 0.000000 0.000000 0.000000 
0.000278 0.947724 -0.000036 -1.998888 -3.138661 2.124050 8.652740 -0.034420 2.298084 -3.268014 0.395705 -3.368029 6.274406 14.289727 10.365790 0.000000 0.000000 0.000000 -4.107216 0.149780 -0.113320 2.437663 -0.270347 -1.665918 -4.401219 -13.880841 14.015628 0.000000 0.000000 0.000000 -2.440699 0.028012 0.598426 3.992676 -0.449229 -23.299425 0.284997 1.779693 28.731626 0.119669 1.585237 -27.882227 0.000000 0.000000 0.000000 -25.982383 1.734307 -2.546424 -54.590114 -6.480839 -6.161553 -9.453302 -26.453600 3.732338 0.000000 0.000000 0.000000 17.721675 5.028014 1.705578 63.896324 0.016195 -8.963142 3.244971 30.119402 2.362459 0.000000 0.000000 0.000000 
0.000357 0.947351 -0.000051 -2.100300 -3.410037 2.262956 8.920751 -0.038139 2.249678 -3.739046 0.438814 -3.407607 6.696626 14.995272 10.798279 0.000000 0.000000 0.000000 -4.036448 0.177578 -0.537847 2.656818 -0.282794 -1.423205 -4.971176 -14.968670 14.558932 0.000000 0.000000 0.000000 -2.725673 0.048218 -0.051222 4.229441 -0.523640 -23.093428 0.327338 1.490741 28.723337 0.189872 1.428896 -27.110063 0.000000 0.000000 0.000000 -26.269805 2.243203 -2.747720 -54.244281 -6.189827 -6.274685 -10.346948 -26.765440 4.020430 0.000000 0.000000 0.000000 17.483588 5.645756 1.921828 64.235549 -0.390809 -9.222024 3.028168 31.057362 2.370298 0.000000 0.000000 0.000000 
0.000348 0.947615 -0.000054 -1.993413 -3.102597 1.929300 9.051404 -0.045304 2.059921 -3.993811 0.459459 -2.723903 6.411215 14.544880 10.676188 0.000000 0.000000 0.000000 -4.205631 0.155402 -0.183006 2.506333 -0.272390 -1.434832 -4.995723 -14.981361 14.604719 0.000000 0.000000 0.000000 -2.827687 0.042120 0.191040 4.375343 -0.599224 -22.470719 0.208583 1.606966 28.222244 0.197951 1.451562 -26.544644 0.000000 0.000000 0.000000 -25.772727 1.986943 -2.675964 -54.092861 -5.833113 -6.331275 -11.539316 -27.713758 4.439649 0.000000 0.000000 0.000000 17.519546 5.308337 1.805208 64.040818 -0.544385 -9.221723 4.169813 31.206780 2.691308 0.000000 0.000000 0.000000 
0.000410 0.947626 -0.000091 -1.965819 -2.884794 1.891302 9.331125 -0.057769 2.020043 -4.430631 0.497645 -2.816041 6.369244 14.488737 10.649553 0.000000 0.000000 0.000000 -4.224465 0.143163 -0.011816 2.311280 -0.257924 -1.478215 -4.987988 -14.949607 14.641560 0.000000 0.000000 0.000000 -3.221955 0.052504 -0.067941 4.616778 -0.653393 -22.509728 0.275683 1.253373 28.512788 0.586560 1.176814 -26.358574 0.000000 0.000000 0.000000 -25.597165 2.330590 -2.795443 -53.934286 -5.753348 -6.391329 -12.349250 -27.974864 4.709935 0.000000 0.000000 0.000000 17.191575 5.466206 1.849647 63.930607 -0.606928 -9.273502 4.182188 31.552198 2.718167 0.000000 0.000000 0.000000 
0.000458 0.947385 -0.000220 -2.019158 -2.850493 1.704594 9.352955 -0.056384 1.927310 -4.460215 0.501182 -2.623965 6.432482 14.624392 10.980400 0.000000 0.000000 0.000000 -4.168832 0.134223 0.066358 2.225934 -0.245921 -1.224853 -4.878492 -14.741772 14.507721 0.000000 0.000000 0.000000 -3.249853 0.049677 0.014834 4.594405 -0.666926 -22.244800 0.284820 1.132566 28.503009 0.922247 0.954478 -26.190102 0.000000 0.000000 0.000000 -25.299744 2.459385 -2.811141 -53.839147 -5.488858 -6.504082 -13.102971 -28.566289 5.024809 0.000000 0.000000 0.000000 16.948040 5.507818 1.850593 63.945054 -0.522296 -9.234147 4.555218 31.972546 2.857039 0.000000 0.000000 0.000000 
